<?xml version="1.0" encoding="utf-8"?>
<!-- Generator: Adobe Illustrator 22.1.0, SVG Export Plug-In . SVG Version: 6.00 Build 0)  -->
<svg version="1.1" id="레이어_1" xmlns="http://www.w3.org/2000/svg" xmlns:xlink="http://www.w3.org/1999/xlink" x="0px"
	 y="0px" viewBox="0 0 200 100" style="enable-background:new 0 0 200 100;" xml:space="preserve">
<style type="text/css">
	.st0{fill:#FFFFFF;}
</style>
<g>
	<circle class="st0" cx="168" cy="38.6" r="7.3"/>
	<path class="st0" d="M168,49.3c-5.9,0-10.7-4.8-10.7-10.7s4.8-10.7,10.7-10.7s10.7,4.8,10.7,10.7S173.9,49.3,168,49.3z M168,28.8
		c-5.4,0-9.8,4.4-9.8,9.8s4.4,9.8,9.8,9.8s9.8-4.4,9.8-9.8S173.4,28.8,168,28.8z"/>
	<path class="st0" d="M82.3,59.3V70c0,3.4,1,5.1,3,5.1c1.1,0,1.9-0.4,2.3-1.3c0.5-0.9,0.7-2.1,0.7-3.8v-6.8H103v7.7
		c0,4.7-1.6,8.2-4.7,10.4c-3.1,2.2-7.4,3.3-12.9,3.3c-5,0-9.2-1.2-12.6-3.5c-3.3-2.4-5-5.8-5-10.4V45.5c0-4.7,1.5-8.4,4.6-11
		s7.4-3.9,13-3.9c2.5,0,4.7,0.3,6.8,0.8c2.1,0.5,3.9,1.3,5.6,2.5c1.6,1.1,2.9,2.7,3.8,4.6c0.9,1.9,1.4,4.2,1.4,7v13.8H82.3z
		 M88.4,50.6v-7.2c0-2.1-1-3.1-3-3.1s-3,1-3,3.1v7.2H88.4z"/>
	<path class="st0" d="M127.6,77.8h-0.2c-1,2.1-2.3,3.8-3.8,5c-1.6,1.2-3.7,1.8-6.4,1.8c-3.2,0-5.7-0.9-7.5-2.8s-2.7-4.5-2.7-8V66
		c0-1.8,0.3-3.3,1-4.7c0.6-1.4,1.5-2.5,2.6-3.5s2.3-1.8,3.5-2.6c1.3-0.7,2.8-1.5,4.6-2.4c3.1-1.5,5.3-2.8,6.8-4
		c1.4-1.2,2.2-2.8,2.2-4.7c0-1.2-0.2-2.1-0.7-2.8s-1.2-1.1-2.3-1.1c-1.1,0-1.9,0.4-2.3,1.1c-0.5,0.7-0.7,1.6-0.7,2.8v5.8H107V45
		c0-2.6,0.5-4.8,1.5-6.6s2.3-3.3,4-4.5c1.7-1.1,3.5-2,5.6-2.5s4.3-0.8,6.5-0.8c2.3,0,4.4,0.3,6.5,0.8s4,1.3,5.6,2.5
		c1.7,1.1,3,2.6,4,4.5c1,1.8,1.5,4,1.5,6.6v39h-14.5v-6.2H127.6z M121.6,70.5c0,0.9,0.3,1.5,0.8,2s1.2,0.7,1.9,0.7
		c1.4,0,2.3-0.5,2.8-1.5c0.4-1,0.6-2.7,0.6-5.2v-9.1c-0.3,0.2-0.8,0.6-1.5,1c-1.5,1-2.7,1.9-3.4,2.8c-0.8,0.9-1.2,2.1-1.2,3.6
		C121.6,64.8,121.6,70.5,121.6,70.5z"/>
	<path class="st0" d="M146.2,84V31.3h14.5V84H146.2z"/>
	<rect x="28.6" y="75.3" class="st0" width="35.2" height="8.7"/>
	<rect x="44" y="15.3" class="st0" width="4.4" height="10.7"/>
	
		<rect x="24.5" y="23.5" transform="matrix(0.7071 -0.7071 0.7071 0.7071 -12.5751 27.2905)" class="st0" width="4.4" height="10.7"/>
	
		<rect x="60.4" y="26.6" transform="matrix(0.7071 -0.7071 0.7071 0.7071 -1.1454 54.9263)" class="st0" width="10.7" height="4.4"/>
	<path class="st0" d="M46.2,30.7c-9.7,0-17.6,7.9-17.6,17.6v23.1h14.3V43.5c0-1.8,1.5-3.3,3.3-3.3s3.3,1.5,3.3,3.3v27.9h14.3V48.3
		C63.8,38.6,55.9,30.7,46.2,30.7z"/>
</g>
</svg>
